<?xml version="1.0" standalone="no"?>
<!DOCTYPE svg PUBLIC "-//W3C//DTD SVG 20010904//EN"
 "http://www.w3.org/TR/2001/REC-SVG-20010904/DTD/svg10.dtd">
<svg version="1.0" xmlns="http://www.w3.org/2000/svg"
 width="1000.000000pt" height="1000.000000pt" viewBox="0 0 1000.000000 1000.000000"
 preserveAspectRatio="xMidYMid meet">
<metadata>
Created by potrace 1.11, written by Peter Selinger 2001-2013
</metadata>
<g transform="translate(0.000000,1000.000000) scale(0.100000,-0.100000)"
fill="#000000" stroke="none">
<path d="M1798 8755 c-2 -2 -25 -6 -53 -9 -27 -4 -90 -16 -140 -27 -49 -12
-97 -21 -105 -22 -8 -1 -17 -5 -20 -9 -3 -4 -15 -9 -25 -11 -48 -9 -224 -96
-315 -155 -97 -64 -215 -165 -310 -268 -57 -61 -166 -204 -181 -238 -7 -14
-17 -26 -22 -26 -6 0 -8 -3 -5 -6 4 -3 -5 -22 -19 -42 -13 -20 -67 -122 -120
-227 -52 -104 -101 -197 -108 -205 -12 -14 -42 -93 -50 -130 -2 -8 -8 -27 -14
-42 -6 -16 -8 -28 -5 -28 4 0 2 -6 -3 -12 -5 -7 -18 -42 -28 -78 -11 -36 -22
-67 -25 -70 -5 -5 -8 -14 -15 -50 -2 -8 -10 -34 -18 -58 -8 -23 -13 -51 -10
-61 2 -10 -3 -42 -11 -72 -9 -30 -18 -72 -21 -94 -3 -22 -8 -49 -10 -61 -3
-12 -7 -36 -10 -55 -31 -200 -33 -226 -30 -505 1 -160 4 -295 7 -300 3 -5 9
-38 12 -74 6 -60 41 -299 50 -345 25 -122 50 -228 76 -315 17 -58 32 -112 34
-120 12 -42 68 -207 76 -222 6 -10 10 -24 10 -33 0 -8 7 -29 15 -47 8 -18 34
-87 59 -153 83 -227 256 -588 363 -757 12 -21 23 -39 23 -42 0 -7 138 -224
223 -351 74 -111 168 -239 213 -292 11 -12 26 -30 34 -40 52 -63 107 -129 120
-143 8 -9 31 -37 50 -61 47 -59 282 -294 405 -404 54 -50 106 -97 115 -105 13
-13 88 -76 140 -117 8 -7 62 -47 120 -90 58 -42 107 -80 110 -83 13 -16 214
-142 280 -176 41 -22 77 -42 78 -46 2 -5 7 -8 12 -8 4 0 68 -29 141 -64 134
-64 291 -132 404 -175 33 -13 71 -28 85 -33 66 -28 97 -38 113 -38 4 0 21 -7
37 -15 16 -8 32 -15 35 -15 3 0 6 0 8 -1 1 0 9 -2 17 -4 8 -2 44 -13 80 -25
36 -12 72 -23 80 -25 8 -2 40 -11 70 -20 30 -8 64 -17 75 -20 11 -2 56 -14
100 -25 44 -12 89 -23 100 -24 11 -2 34 -6 50 -10 33 -7 53 -11 140 -27 69
-13 88 -17 95 -19 3 -1 9 -2 13 -1 5 1 34 -3 65 -9 58 -10 86 -14 182 -25 93
-10 131 -14 235 -22 125 -10 959 -9 1040 1 33 4 87 9 120 11 65 5 131 14 155
20 8 2 40 7 70 10 30 4 57 8 60 10 3 2 24 6 46 9 22 4 49 8 59 10 11 2 61 12
110 21 106 20 119 23 123 25 1 2 10 3 20 5 9 1 24 4 32 7 26 10 135 33 143 30
4 -1 7 2 7 6 0 4 9 8 20 9 12 1 45 11 75 22 30 12 55 18 55 15 0 -4 7 -1 15 6
8 7 15 9 15 4 0 -5 4 -4 8 1 4 6 27 17 52 24 25 7 61 20 80 28 19 9 44 18 54
20 11 2 24 7 30 12 6 5 22 12 36 16 96 29 471 213 615 303 127 79 374 265 461
347 6 5 37 33 70 60 75 63 170 158 259 258 39 44 81 91 95 106 74 81 135 162
245 326 44 66 86 126 93 133 6 7 12 17 12 22 0 5 6 15 13 22 19 20 46 64 88
145 22 40 57 107 79 148 21 41 37 75 34 75 -3 0 4 13 15 29 12 16 21 32 21 35
0 3 21 50 46 103 51 108 134 302 134 313 0 4 7 24 15 44 8 20 15 38 15 41 0 3
6 19 15 35 8 16 14 33 13 37 0 4 5 22 12 38 7 17 14 35 15 40 2 6 11 37 21 70
10 33 19 65 21 70 26 94 39 131 48 137 5 4 7 8 3 8 -4 0 2 33 14 73 11 39 22
83 24 96 3 13 9 32 15 42 5 10 8 22 7 26 -1 4 4 33 11 63 39 167 49 289 46
570 -3 316 -15 392 -91 613 -13 37 -24 70 -25 75 -5 25 -46 124 -71 170 -10
18 -18 39 -18 47 0 8 -4 15 -10 15 -5 0 -10 4 -10 10 0 16 -59 109 -134 210
-93 126 -261 294 -419 419 -104 82 -155 114 -275 172 -81 40 -158 76 -172 82
-14 5 -33 13 -43 19 -10 5 -22 6 -27 3 -6 -4 -10 -2 -10 3 0 5 -6 9 -12 10 -7
0 -47 10 -88 22 -41 11 -86 22 -100 25 -185 32 -304 27 -505 -25 -44 -11 -98
-22 -120 -24 -22 -2 -40 -5 -40 -6 0 -2 -22 -6 -80 -15 -22 -3 -71 -12 -110
-20 -38 -7 -88 -16 -109 -19 -21 -4 -48 -8 -60 -11 -12 -2 -39 -7 -61 -10 -22
-4 -51 -8 -65 -11 -14 -2 -45 -6 -70 -9 -25 -3 -61 -7 -80 -10 -57 -8 -102
-14 -165 -20 -33 -4 -76 -8 -95 -10 -235 -25 -831 -25 -990 0 -14 2 -50 7 -80
10 -99 10 -270 32 -310 40 -13 3 -40 7 -60 10 -19 3 -71 14 -115 26 -44 11
-91 22 -105 25 -14 3 -34 8 -45 11 -11 4 -24 8 -30 9 -20 5 -51 14 -122 33
-40 10 -73 16 -73 13 0 -4 -4 -2 -8 3 -6 9 -67 29 -125 40 -107 22 -611 241
-738 321 -20 13 -40 20 -43 17 -3 -4 -6 -1 -6 5 0 7 -4 12 -9 12 -4 0 -45 21
-91 48 -45 26 -105 60 -133 76 -29 15 -59 34 -68 42 -8 8 -18 14 -22 14 -7 0
-489 319 -497 329 -3 3 -39 28 -80 56 -86 57 -273 196 -278 208 -2 4 -10 7
-17 7 -7 0 -15 4 -17 8 -4 11 -53 44 -113 77 -27 16 -64 36 -80 45 -98 55
-336 129 -475 149 -57 8 -275 12 -282 6z m3474 -1939 c41 -7 199 -61 239 -82
75 -38 148 -141 153 -215 5 -63 -54 -143 -128 -174 -105 -44 -315 -25 -435 40
-74 41 -163 122 -186 171 -29 61 -12 146 38 194 31 31 107 76 107 65 0 -3 8
-1 18 5 17 10 125 8 194 -4z"/>
</g>
</svg>
